<svg width="178" height="29" viewBox="0 0 178 29" fill="none" xmlns="http://www.w3.org/2000/svg">
<path d="M10.6829 7.92653C15.9666 2.75561 24.5331 2.75561 29.8168 7.92653L30.4527 8.54886C30.7169 8.8074 30.7169 9.22659 30.4527 9.48513L28.2774 11.614C28.1453 11.7433 27.9312 11.7433 27.7991 11.614L26.924 10.7576C23.238 7.15024 17.2617 7.15024 13.5757 10.7576L12.6386 11.6747C12.5065 11.804 12.2923 11.804 12.1602 11.6747L9.98492 9.54587C9.72073 9.28732 9.72073 8.86813 9.98492 8.60959L10.6829 7.92653ZM34.3155 12.3292L36.2515 14.2239C36.5157 14.4825 36.5157 14.9017 36.2515 15.1602L27.5219 23.7036C27.2577 23.9622 26.8294 23.9622 26.5652 23.7036L20.3695 17.6401C20.3034 17.5755 20.1963 17.5755 20.1303 17.6401L13.9347 23.7036C13.6705 23.9622 13.2422 23.9622 12.978 23.7036L4.24813 15.1601C3.98394 14.9016 3.98394 14.4824 4.24813 14.2238L6.18414 12.3291C6.44833 12.0706 6.87665 12.0706 7.14084 12.3291L13.3367 18.3927C13.4027 18.4574 13.5098 18.4574 13.5758 18.3927L19.7714 12.3291C20.0356 12.0706 20.4639 12.0706 20.7281 12.3291L26.9239 18.3927C26.99 18.4574 27.097 18.4574 27.1631 18.3927L33.3588 12.3292C33.623 12.0707 34.0513 12.0707 34.3155 12.3292Z" fill="white"/>
<path d="M48.0926 20.9473L50.4312 11.5929C50.5699 11.0776 50.6888 10.5227 50.8474 9.65065C50.9663 10.5227 51.105 11.0776 51.2041 11.5929L53.2256 20.9473H57.4074L60.9351 7.07422H57.7245L55.7822 15.5963C55.584 16.4286 55.4651 17.0827 55.3264 18.0538C55.1678 17.1223 55.0093 16.4286 54.8309 15.6161L52.9481 7.07422H48.7466L46.7053 15.6161C46.5269 16.4286 46.3882 17.0827 46.2296 18.0538C46.0711 17.0827 45.9323 16.4286 45.754 15.6161L43.8514 7.07422H40.502L44.0099 20.9473H48.0926Z" fill="white"/>
<path d="M63.3293 21.3042C64.9148 21.3042 65.9255 20.6502 66.4408 19.6989C66.3814 19.9962 66.3615 20.2935 66.3615 20.5908V20.9475H69.0172V15.2199C69.0172 12.4849 67.7687 10.8994 64.7166 10.8994C62.0807 10.8994 60.3565 12.366 60.1979 14.3875H63.1113C63.2104 13.4957 63.8446 12.9606 64.8157 12.9606C65.7273 12.9606 66.2228 13.4758 66.2228 14.0704C66.2228 14.5064 65.9652 14.7641 65.1922 14.8632L63.8049 15.0217C61.7438 15.2793 59.9799 16.0325 59.9799 18.2125C59.9799 20.1944 61.6249 21.3042 63.3293 21.3042ZM64.2211 19.2629C63.4482 19.2629 62.8734 18.8269 62.8734 18.0738C62.8734 17.3405 63.5275 16.9838 64.5184 16.8054L65.1922 16.6865C65.767 16.5676 66.0841 16.4685 66.2823 16.2901V17.2018C66.2823 18.4305 65.3904 19.2629 64.2211 19.2629Z" fill="white"/>
<path d="M70.3978 7.07422V20.9473H73.2715V7.07422H70.3978Z" fill="white"/>
<path d="M74.9339 7.07422V20.9473H77.8076V7.07422H74.9339Z" fill="white"/>
<path d="M84.0803 21.3042C86.8153 21.3042 88.5792 19.7584 88.7773 17.7369H85.8838C85.7451 18.6287 84.992 19.1242 84.0803 19.1242C82.8516 19.1242 81.9597 18.1332 81.9399 16.7657H88.8368V16.2108C88.8368 13.0002 87.0729 10.8994 84.0209 10.8994C81.0877 10.8994 79.0266 12.9606 79.0266 16.0721C79.0266 19.4413 81.1471 21.3042 84.0803 21.3042ZM81.9201 14.883C82.039 13.7731 82.8516 12.9606 84.001 12.9606C85.1109 12.9606 85.8838 13.7335 85.9036 14.883H81.9201Z" fill="white"/>
<path d="M94.9192 21.1454C95.5534 21.1454 96.1678 21.0463 96.4453 20.967V18.787C96.2273 18.8266 95.9696 18.8464 95.7516 18.8464C94.7012 18.8464 94.3247 18.2519 94.3247 17.2807V13.4756H96.6633V11.236H94.3247V7.7876H91.4708V11.236H89.37V13.4756H91.4708V17.6771C91.4708 19.9761 92.6203 21.1454 94.9192 21.1454Z" fill="white"/>
<path d="M104.62 21.3038C108.544 21.3038 110.922 19.0049 111.219 15.6952H108.108C107.87 17.4987 106.602 18.7274 104.739 18.7274C102.539 18.7274 100.993 16.9437 100.993 13.9313C100.993 10.9783 102.598 9.29372 104.798 9.29372C106.681 9.29372 107.751 10.4432 107.969 12.1278H111.16C110.843 8.67934 108.306 6.71729 104.818 6.71729C100.834 6.71729 97.7822 9.41263 97.7822 13.9313C97.7822 18.6085 100.458 21.3038 104.62 21.3038Z" fill="white"/>
<path d="M117.449 21.3042C120.442 21.3042 122.563 19.4215 122.563 16.1315C122.563 12.9011 120.442 10.8994 117.449 10.8994C114.477 10.8994 112.356 12.9011 112.356 16.1315C112.356 19.4215 114.457 21.3042 117.449 21.3042ZM117.449 19.0845C116.122 19.0845 115.269 17.9945 115.269 16.1315C115.269 14.229 116.161 13.1587 117.449 13.1587C118.757 13.1587 119.649 14.229 119.649 16.1315C119.649 17.9945 118.777 19.0845 117.449 19.0845Z" fill="white"/>
<path d="M126.569 20.9475V15.2595C126.569 14.0506 127.322 13.1587 128.392 13.1587C129.403 13.1587 129.998 13.9317 129.998 15.2199V20.9475H132.871V14.8037C132.871 12.4651 131.642 10.8994 129.443 10.8994C127.917 10.8994 126.985 11.6327 126.49 12.5047C126.549 12.148 126.569 11.8705 126.569 11.6129V11.2363H123.695V20.9475H126.569Z" fill="white"/>
<path d="M137.464 20.9475V15.2595C137.464 14.0506 138.217 13.1587 139.287 13.1587C140.298 13.1587 140.893 13.9317 140.893 15.2199V20.9475H143.766V14.8037C143.766 12.4651 142.538 10.8994 140.338 10.8994C138.812 10.8994 137.88 11.6327 137.385 12.5047C137.444 12.148 137.464 11.8705 137.464 11.6129V11.2363H134.59V20.9475H137.464Z" fill="white"/>
<path d="M149.949 21.3042C152.684 21.3042 154.448 19.7584 154.646 17.7369H151.753C151.614 18.6287 150.861 19.1242 149.949 19.1242C148.721 19.1242 147.829 18.1332 147.809 16.7657H154.706V16.2108C154.706 13.0002 152.942 10.8994 149.89 10.8994C146.957 10.8994 144.896 12.9606 144.896 16.0721C144.896 19.4413 147.016 21.3042 149.949 21.3042ZM147.789 14.883C147.908 13.7731 148.721 12.9606 149.87 12.9606C150.98 12.9606 151.753 13.7335 151.773 14.883H147.789Z" fill="white"/>
<path d="M160.876 21.3042C163.889 21.3042 165.534 19.6593 165.851 17.1027H162.977C162.878 18.1729 162.264 19.0845 160.976 19.0845C159.667 19.0845 158.776 17.8756 158.776 16.0919C158.776 14.1497 159.806 13.1587 161.035 13.1587C162.244 13.1587 162.838 14.0308 162.918 15.0415H165.791C165.573 12.6831 163.968 10.8994 161.015 10.8994C158.141 10.8994 155.862 12.802 155.862 16.0919C155.862 19.3422 157.785 21.3042 160.876 21.3042Z" fill="white"/>
<path d="M172.067 21.1454C172.701 21.1454 173.315 21.0463 173.593 20.967V18.787C173.375 18.8266 173.117 18.8464 172.899 18.8464C171.849 18.8464 171.472 18.2519 171.472 17.2807V13.4756H173.811V11.236H171.472V7.7876H168.618V11.236H166.518V13.4756H168.618V17.6771C168.618 19.9761 169.768 21.1454 172.067 21.1454Z" fill="white"/>
</svg>
