<svg width="24" height="24" viewBox="0 0 24 24" fill="none" xmlns="http://www.w3.org/2000/svg">
<path fill-rule="evenodd" clip-rule="evenodd" d="M4.46967 4.47016C4.76256 4.17726 5.23744 4.17726 5.53033 4.47016L12 10.9398L18.4697 4.47016C18.7626 4.17726 19.2374 4.17726 19.5303 4.47016C19.8232 4.76305 19.8232 5.23793 19.5303 5.53082L13.0607 12.0005L19.5303 18.4702C19.8232 18.7631 19.8232 19.2379 19.5303 19.5308C19.2374 19.8237 18.7626 19.8237 18.4697 19.5308L12 13.0611L5.53033 19.5308C5.23744 19.8237 4.76256 19.8237 4.46967 19.5308C4.17678 19.2379 4.17678 18.7631 4.46967 18.4702L10.9393 12.0005L4.46967 5.53082C4.17678 5.23793 4.17678 4.76305 4.46967 4.47016Z" fill="white"/>
</svg>
