<svg width="18" height="16" viewBox="0 0 18 16" fill="none" xmlns="http://www.w3.org/2000/svg">
<path d="M10.0003 5.08333C10.0003 4.53105 9.55247 4.08333 9 4.08333C8.44753 4.08333 7.99967 4.53105 7.99967 5.08333V7.41667C7.99967 7.96895 8.44753 8.41667 9 8.41667C9.55247 8.41667 10.0003 7.96895 10.0003 7.41667V5.08333Z" fill="#F05142"/>
<path d="M9 12.0833C9.64455 12.0833 10.1671 11.561 10.1671 10.9167C10.1671 10.2723 9.64455 9.75 9 9.75C8.35545 9.75 7.83294 10.2723 7.83294 10.9167C7.83294 11.561 8.35545 12.0833 9 12.0833Z" fill="#F05142"/>
<path fill-rule="evenodd" clip-rule="evenodd" d="M9 0C4.58024 0 0.997314 3.58172 0.997314 8C0.997314 12.4183 4.58024 16 9 16C13.4198 16 17.0027 12.4183 17.0027 8C17.0027 3.58172 13.4198 0 9 0ZM2.99799 8C2.99799 4.68629 5.68518 2 9 2C12.3148 2 15.002 4.68629 15.002 8C15.002 11.3137 12.3148 14 9 14C5.68518 14 2.99799 11.3137 2.99799 8Z" fill="#F05142"/>
</svg>
