<svg width="12" height="14" viewBox="0 0 12 14" fill="none" xmlns="http://www.w3.org/2000/svg">
<path d="M5.93122 2.25188C7.08173 2.20394 8.25 3.00189 8.25 4.50257C8.25 5.35129 7.80531 5.72732 7.04173 6.3167L6.99952 6.34926C6.26569 6.91507 5.25 7.6982 5.25 9.31821C5.25 9.73243 5.58579 10.0682 6 10.0682C6.41421 10.0682 6.75 9.73243 6.75 9.31821C6.75 8.46953 7.19468 8.09351 7.95827 7.50412L8.00046 7.47158C8.7343 6.90576 9.75 6.12262 9.75 4.50257C9.75 2.00307 7.71827 0.676123 5.86878 0.753176C4.89311 0.793829 3.9947 1.27507 3.34889 1.94152C2.7031 2.60796 2.25 3.5217 2.25 4.50252C2.25 4.91673 2.58579 5.25252 3 5.25252C3.41421 5.25252 3.75 4.91673 3.75 4.50252C3.75 3.9833 3.9969 3.4283 4.42611 2.98537C4.8553 2.54246 5.40689 2.27372 5.93122 2.25188Z" fill="white"/>
<path d="M6.07849 13.6113C6.76885 13.6113 7.32849 13.0516 7.32849 12.3613C7.32849 11.6709 6.76885 11.1113 6.07849 11.1113C5.38814 11.1113 4.82849 11.6709 4.82849 12.3613C4.82849 13.0516 5.38814 13.6113 6.07849 13.6113Z" fill="white"/>
</svg>
