<svg width="18" height="18" viewBox="0 0 18 18" fill="none" xmlns="http://www.w3.org/2000/svg">
<path d="M11.502 0.877702C11.1558 0.875241 10.8746 1.15599 10.8746 1.50161C10.8746 1.84656 11.1539 2.12531 11.4978 2.12776C12.1737 2.13258 12.7055 2.14653 13.1497 2.1864C13.8045 2.24516 14.1619 2.35332 14.4241 2.5029C14.8714 2.75801 15.2419 3.12853 15.497 3.57578C15.6466 3.83802 15.7547 4.1954 15.8135 4.85018C15.8534 5.29442 15.8673 5.82618 15.8721 6.50203C15.8746 6.846 16.1533 7.12522 16.4983 7.12522C16.8439 7.12522 17.1246 6.84403 17.1222 6.49781C17.1099 4.77376 17.039 3.75637 16.5828 2.95645C16.2168 2.31476 15.6851 1.78313 15.0434 1.41711C14.2435 0.960849 13.2261 0.889956 11.502 0.877702Z" fill="white"/>
<path d="M7.12463 1.50161C7.12463 1.15599 6.84344 0.875241 6.49722 0.877702C4.77319 0.889959 3.75581 0.960856 2.9559 1.41711C2.31421 1.78313 1.78258 2.31476 1.41657 2.95645C0.960303 3.75637 0.889408 4.77376 0.877152 6.49781C0.874691 6.84403 1.15544 7.12522 1.50106 7.12522C1.84601 7.12522 2.12476 6.846 2.12721 6.50203C2.13203 5.82618 2.14598 5.29442 2.18585 4.85018C2.24461 4.1954 2.35277 3.83802 2.50235 3.57578C2.75746 3.12853 3.12798 2.75801 3.57523 2.5029C3.83747 2.35332 4.19485 2.24516 4.84963 2.1864C5.29386 2.14654 5.82561 2.13258 6.50144 2.12776C6.84541 2.12531 7.12463 1.84656 7.12463 1.50161Z" fill="white"/>
<path fill-rule="evenodd" clip-rule="evenodd" d="M5.33299 3.54189C4.34348 3.54189 3.54132 4.34405 3.54132 5.33356V6.66689C3.54132 7.6564 4.34348 8.45856 5.33299 8.45856H6.66632C7.65583 8.45856 8.45799 7.6564 8.45799 6.66689V5.33356C8.45799 4.34405 7.65583 3.54189 6.66632 3.54189H5.33299ZM4.79132 5.33356C4.79132 5.0344 5.03383 4.79189 5.33299 4.79189H6.66632C6.96547 4.79189 7.20799 5.0344 7.20799 5.33356V6.66689C7.20799 6.96604 6.96547 7.20856 6.66632 7.20856H5.33299C5.03383 7.20856 4.79132 6.96604 4.79132 6.66689V5.33356Z" fill="white"/>
<path fill-rule="evenodd" clip-rule="evenodd" d="M11.333 3.54189C10.3435 3.54189 9.54132 4.34405 9.54132 5.33356V6.66689C9.54132 7.6564 10.3435 8.45856 11.333 8.45856H12.6663C13.6558 8.45856 14.458 7.6564 14.458 6.66689V5.33356C14.458 4.34405 13.6558 3.54189 12.6663 3.54189H11.333ZM10.7913 5.33356C10.7913 5.0344 11.0338 4.79189 11.333 4.79189H12.6663C12.9655 4.79189 13.208 5.0344 13.208 5.33356V6.66689C13.208 6.96604 12.9655 7.20856 12.6663 7.20856H11.333C11.0338 7.20856 10.7913 6.96604 10.7913 6.66689V5.33356Z" fill="white"/>
<path fill-rule="evenodd" clip-rule="evenodd" d="M5.33299 9.54189C4.34348 9.54189 3.54132 10.344 3.54132 11.3336V12.6669C3.54132 13.6564 4.34348 14.4586 5.33299 14.4586H6.66632C7.65583 14.4586 8.45799 13.6564 8.45799 12.6669V11.3336C8.45799 10.344 7.65583 9.54189 6.66632 9.54189H5.33299ZM4.79132 11.3336C4.79132 11.0344 5.03383 10.7919 5.33299 10.7919H6.66632C6.96547 10.7919 7.20799 11.0344 7.20799 11.3336V12.6669C7.20799 12.966 6.96547 13.2086 6.66632 13.2086H5.33299C5.03383 13.2086 4.79132 12.966 4.79132 12.6669V11.3336Z" fill="white"/>
<path fill-rule="evenodd" clip-rule="evenodd" d="M11.333 9.54553C10.3435 9.54553 9.54132 10.3477 9.54132 11.3372V12.6705C9.54132 13.66 10.3435 14.4622 11.333 14.4622H12.6663C13.6558 14.4622 14.458 13.66 14.458 12.6705V11.3372C14.458 10.3477 13.6558 9.54553 12.6663 9.54553H11.333ZM10.7913 11.3372C10.7913 11.038 11.0338 10.7955 11.333 10.7955H12.6663C12.9655 10.7955 13.208 11.038 13.208 11.3372V12.6705C13.208 12.9697 12.9655 13.2122 12.6663 13.2122H11.333C11.0338 13.2122 10.7913 12.9697 10.7913 12.6705V11.3372Z" fill="white"/>
<path d="M1.50106 10.8752C1.15544 10.8752 0.874691 11.1564 0.877152 11.5026C0.889408 13.2267 0.960303 14.2441 1.41657 15.044C1.78258 15.6857 2.31421 16.2173 2.9559 16.5833C3.75581 17.0396 4.77319 17.1105 6.49722 17.1227C6.84344 17.1252 7.12463 16.8444 7.12463 16.4988C7.12463 16.1539 6.84541 15.8751 6.50144 15.8727C5.82561 15.8679 5.29386 15.8539 4.84963 15.814C4.19485 15.7553 3.83747 15.6471 3.57523 15.4975C3.12798 15.2424 2.75746 14.8719 2.50235 14.4247C2.35277 14.1624 2.24461 13.805 2.18585 13.1503C2.14598 12.706 2.13203 12.1743 2.12721 11.4984C2.12476 11.1544 1.84601 10.8752 1.50106 10.8752Z" fill="white"/>
<path d="M16.4983 10.8752C16.1533 10.8752 15.8746 11.1544 15.8721 11.4984C15.8673 12.1743 15.8534 12.706 15.8135 13.1503C15.7547 13.805 15.6466 14.1624 15.497 14.4247C15.2419 14.8719 14.8714 15.2424 14.4241 15.4975C14.1619 15.6471 13.8045 15.7553 13.1497 15.814C12.7055 15.8539 12.1737 15.8679 11.4978 15.8727C11.1539 15.8751 10.8746 16.1539 10.8746 16.4988C10.8746 16.8444 11.1558 17.1252 11.502 17.1227C13.2261 17.1105 14.2435 17.0396 15.0434 16.5833C15.6851 16.2173 16.2168 15.6857 16.5828 15.044C17.039 14.2441 17.1099 13.2267 17.1222 11.5026C17.1246 11.1564 16.8439 10.8752 16.4983 10.8752Z" fill="white"/>
</svg>
