<svg width="16" height="16" viewBox="0 0 16 16" fill="none" xmlns="http://www.w3.org/2000/svg">
<path d="M10.0001 15.2163C10.0001 15.6376 10.3474 15.9787 10.7681 15.9562C11.9703 15.892 12.7928 15.7336 13.4773 15.3432C14.2551 14.8995 14.8995 14.2551 15.3431 13.4773C15.7336 12.7927 15.892 11.9703 15.9562 10.768C15.9786 10.3473 15.6376 10 15.2163 10C14.8091 10 14.4788 10.3251 14.456 10.7317C14.4472 10.8887 14.4366 11.0375 14.4239 11.1792C14.351 11.9912 14.2178 12.4228 14.0402 12.7341C13.7296 13.2786 13.2786 13.7296 12.7341 14.0402C12.4228 14.2178 11.9912 14.351 11.1792 14.4239C11.0375 14.4366 10.8888 14.4472 10.7318 14.456C10.3252 14.4788 10.0001 14.8091 10.0001 15.2163Z" fill="white"/>
<path d="M10.0001 0.78366C10.0001 1.1909 10.3252 1.52115 10.7318 1.54398C10.8888 1.5528 11.0375 1.56339 11.1792 1.5761C11.9912 1.64897 12.4228 1.78223 12.7341 1.95979C13.2786 2.27035 13.7296 2.72142 14.0402 3.26589C14.2178 3.57719 14.351 4.00883 14.4239 4.82083C14.4366 4.96249 14.4472 5.11125 14.456 5.26834C14.4788 5.67494 14.8091 6 15.2163 6C15.6376 6 15.9786 5.65273 15.9562 5.23204C15.892 4.02973 15.7336 3.20725 15.3431 2.5227C14.8995 1.74489 14.2551 1.1005 13.4773 0.656841C12.7928 0.266395 11.9703 0.108042 10.7681 0.0438177C10.3474 0.0213446 10.0001 0.362373 10.0001 0.78366Z" fill="white"/>
<path d="M5.23215 0.0438052C5.65284 0.0213374 6.00011 0.362364 6.00011 0.78365C6.00011 1.1909 5.67505 1.52114 5.26844 1.54397C5.11132 1.55279 4.96252 1.56338 4.82083 1.5761C4.00882 1.64897 3.57718 1.78223 3.26589 1.95979C2.72142 2.27035 2.27034 2.72142 1.95978 3.26589C1.78222 3.57719 1.64896 4.00883 1.57609 4.82083C1.56338 4.96249 1.55279 5.11125 1.54397 5.26834C1.52114 5.67494 1.19089 6 0.783649 6C0.362363 6 0.021335 5.65273 0.0438054 5.23204C0.108025 4.02973 0.266377 3.20725 0.656835 2.5227C1.10049 1.74489 1.74489 1.1005 2.5227 0.656841C3.20727 0.26637 4.02978 0.108021 5.23215 0.0438052Z" fill="white"/>
<path d="M5.26844 14.456C5.67505 14.4789 6.00011 14.8091 6.00011 15.2163C6.00011 15.6376 5.65284 15.9787 5.23215 15.9562C4.02978 15.892 3.20727 15.7336 2.5227 15.3432C1.74489 14.8995 1.10049 14.2551 0.656835 13.4773C0.266377 12.7927 0.108025 11.9703 0.0438054 10.768C0.021335 10.3473 0.362363 10 0.783649 10C1.19089 10 1.52114 10.3251 1.54397 10.7317C1.55279 10.8887 1.56338 11.0375 1.57609 11.1792C1.64896 11.9912 1.78222 12.4228 1.95978 12.7341C2.27034 13.2786 2.72142 13.7296 3.26589 14.0402C3.57718 14.2178 4.00882 14.351 4.82083 14.4239C4.96252 14.4366 5.11132 14.4472 5.26844 14.456Z" fill="white"/>
</svg>
