<svg width="16" height="16" viewBox="0 0 16 16" fill="none" xmlns="http://www.w3.org/2000/svg">
<path fill-rule="evenodd" clip-rule="evenodd" d="M1 10.2005V7.2005H1.00131C1.0097 5.34385 1.07142 4.31468 1.52547 3.51865C1.88039 2.8964 2.39591 2.38089 3.01816 2.02596C3.93941 1.50049 5.17294 1.50049 7.63999 1.50049H11.375C11.9556 1.50049 12.246 1.50049 12.4887 1.54056C13.7567 1.74992 14.7506 2.74375 14.9599 4.0118C15 4.2545 15 4.54483 15 5.12549C15 5.70615 15 5.99647 14.9599 6.23917C14.7506 7.50723 13.7567 8.50106 12.4887 8.71042C12.246 8.75049 11.9556 8.75049 11.375 8.75049H10.5983C10.7753 9.05701 10.8999 9.39813 10.9599 9.7618C11 10.0045 11 10.2948 11 10.8755C11 11.4561 11 11.7465 10.9599 11.9892C10.7506 13.2572 9.75674 14.2511 8.48869 14.4604C8.24599 14.5005 7.95566 14.5005 7.375 14.5005H4.86667C2.73117 14.5005 1 12.7693 1 10.6338V10.2005ZM7.63999 3.00049H11.375C12.0154 3.00049 12.1536 3.00554 12.2443 3.02052C12.8784 3.1252 13.3753 3.62212 13.48 4.25615C13.4949 4.34691 13.5 4.48509 13.5 5.12549C13.5 5.76589 13.4949 5.90407 13.48 5.99483C13.3753 6.62886 12.8784 7.12577 12.2443 7.23045C12.1536 7.24544 12.0154 7.25049 11.375 7.25049H4.38333C3.68622 7.25049 3.03834 7.46132 2.5 7.82271V7.25049H2.5012C2.50443 6.45946 2.51631 5.86716 2.55967 5.38397C2.61612 4.75495 2.71654 4.45798 2.82841 4.26184C3.05024 3.87294 3.37244 3.55074 3.76134 3.32891C3.95748 3.21703 4.25445 3.11662 4.88347 3.06017C5.53279 3.0019 6.37915 3.00049 7.63999 3.00049ZM7.375 8.75049H4.38333C3.3432 8.75049 2.5 9.59369 2.5 10.6338C2.5 11.9409 3.55959 13.0005 4.86667 13.0005H7.375C8.0154 13.0005 8.15358 12.9954 8.24434 12.9805C8.87837 12.8758 9.37529 12.3789 9.47997 11.7448C9.49495 11.6541 9.5 11.5159 9.5 10.8755C9.5 10.2351 9.49495 10.0969 9.47997 10.0061C9.37529 9.37212 8.87837 8.8752 8.24434 8.77052C8.15358 8.75554 8.0154 8.75049 7.375 8.75049Z" fill="white"/>
</svg>
